<svg xmlns="http://www.w3.org/2000/svg" style="display: none;">
<symbol id="kitchen" xmlns="http://www.w3.org/2000/svg" width="33" height="33" fill="none">
<path stroke="#101828" stroke-linecap="round" stroke-linejoin="round" stroke-width="1.8" d="M25.833 20.5v-16c-6.42 6.125-6.697 11.092-6.666 16h6.666Zm0 0v8H24.5v-4M11.167 5.833V28.5m-4-22.667v4a4 4 0 0 0 8 0v-4"/>
</symbol>

<symbol id="alcove" xmlns="http://www.w3.org/2000/svg" width="40" height="29" fill="none">
<path fill="#101828" d="M2.282 2.075H13.14a.346.346 0 0 0 .243-.099L14.426.96A1.615 1.615 0 0 1 15.561.5h16.465a2.3 2.3 0 0 1 1.904.994l1.973 2.888c.28.41.306.934.068 1.368a1.37 1.37 0 0 1-1.205.704H26.28v.837h4.346a2.87 2.87 0 0 1 2.64 1.702l2.545 5.818 2.23.87c1.19.465 1.959 1.573 1.959 2.824v5.388c0 .804-.67 1.458-1.494 1.458h-2.594c-.301 1.783-1.893 3.149-3.806 3.149S28.6 27.134 28.3 25.35H14.122c-.302 1.784-1.894 3.15-3.807 3.15-1.912 0-3.504-1.366-3.806-3.15h-5.18C.595 25.35 0 24.77 0 24.056V4.3c0-1.228 1.023-2.226 2.282-2.226ZM32.106 27.27c1.432 0 2.598-1.137 2.598-2.535 0-1.397-1.166-2.534-2.598-2.534-1.433 0-2.598 1.137-2.598 2.534 0 1.398 1.165 2.535 2.598 2.535Zm-5.826-3.15h2.019l.017-.091.012-.062c.01-.048.022-.096.034-.144l.008-.03c.015-.057.031-.113.05-.17.004-.016.01-.032.016-.049a4.18 4.18 0 0 1 .065-.18l.041-.1.03-.066.043-.095.033-.066.048-.09.035-.065.052-.088.038-.062.058-.088.039-.057c.022-.031.044-.062.068-.092l.035-.048a4.466 4.466 0 0 1 .225-.266l.037-.038.084-.087.05-.046a3.456 3.456 0 0 1 .211-.188l.058-.045a4.16 4.16 0 0 1 .141-.107l.085-.059.06-.04c.03-.02.06-.038.091-.057l.06-.036c.033-.02.067-.038.101-.057l.052-.03a4.71 4.71 0 0 1 .148-.073l.011-.005c.054-.026.108-.05.163-.072.017-.008.036-.014.053-.021l.114-.044.065-.023a4.02 4.02 0 0 1 .458-.126l.076-.016a3.637 3.637 0 0 1 .294-.044l.072-.008.125-.01c.02 0 .041-.003.062-.003a3.497 3.497 0 0 1 .378 0c.02 0 .04.002.062.004.041.002.083.005.125.01.024.001.048.005.072.007a3.454 3.454 0 0 1 .37.06 3.79 3.79 0 0 1 .458.126l.065.023.114.044.053.02c.055.023.11.047.163.073l.011.005c.05.024.099.048.147.074l.052.029c.035.018.069.037.102.057l.06.036.09.057.061.04.085.06a2.876 2.876 0 0 1 .141.106l.058.045a5.09 5.09 0 0 1 .211.188l.05.046.084.087.037.038c.04.042.078.086.115.13l.015.018c.032.039.064.077.095.118l.035.048.068.092.039.057.058.088.038.062.051.088.036.065.048.09.033.066c.015.032.03.063.043.095l.03.065a2.467 2.467 0 0 1 .065.164l.041.117.017.05c.017.056.034.112.05.17l.007.03c.012.047.023.095.033.143l.013.062.017.091h2.593a.23.23 0 0 0 .233-.227v-2.578h-.984v-1.23h.984v-1.58c0-.745-.458-1.405-1.167-1.682l-2.36-.92H26.28v8.217Zm0-9.448h8.1l-2.273-5.197a1.61 1.61 0 0 0-1.481-.954H26.28v6.151ZM10.315 27.27c1.433 0 2.598-1.137 2.598-2.535 0-1.397-1.165-2.534-2.598-2.534-.045 0-.089.001-.133.004-1.194.059-2.177.908-2.412 2.02a2.606 2.606 0 0 0-.049.38 2.24 2.24 0 0 0-.003.13c0 1.398 1.165 2.535 2.597 2.535Zm-9.054-7.185h.984v1.23H1.26v2.74c0 .036.03.065.067.065h5.18l.018-.09c.004-.021.007-.043.012-.064.01-.047.02-.094.033-.14l.008-.033c.015-.057.032-.113.05-.17l.017-.05.04-.116.025-.063a5.547 5.547 0 0 1 .07-.167l.043-.093c.01-.023.022-.045.034-.067l.046-.09.037-.065a4.985 4.985 0 0 1 .186-.295l.067-.091.037-.05c.03-.039.06-.077.093-.115l.016-.02c.038-.044.076-.088.115-.13l.038-.04.084-.085.05-.047.077-.073.055-.047.079-.066.058-.047a4.97 4.97 0 0 1 .14-.106c.028-.02.056-.04.085-.058l.06-.041.09-.057.06-.036.102-.057.053-.03c.048-.025.097-.049.146-.072.004-.002.008-.005.013-.006.053-.026.108-.05.162-.072l.054-.021.113-.044.066-.023a3.45 3.45 0 0 1 .105-.034 3.946 3.946 0 0 1 .353-.091l.075-.017a3.62 3.62 0 0 1 .294-.044l.072-.008.126-.01c.02 0 .04-.003.061-.003a3.5 3.5 0 0 1 .378 0c.021 0 .041.002.062.004.042.002.084.005.125.01.024.001.048.005.072.007a3.526 3.526 0 0 1 .188.026l.106.018.076.016a3.79 3.79 0 0 1 .281.07l.072.022c.035.01.07.022.104.034l.066.023.114.044.053.02a3.966 3.966 0 0 1 .321.152l.053.029.102.057.06.036.09.057.061.04.084.06a2.428 2.428 0 0 1 .14.105l.059.047c.027.021.053.044.079.066l.054.047.079.074.049.046.084.086.037.04a4.111 4.111 0 0 1 .225.265l.036.048c.023.03.046.061.067.092l.039.058a3.468 3.468 0 0 1 .148.237l.036.065.047.09.033.066.044.095.029.065c.015.034.028.068.041.102l.024.062c.015.039.028.078.041.118l.017.048c.018.056.034.114.05.17l.006.028c.013.048.024.097.035.146l.011.06.019.093h10.896V5.84c0-.34.282-.616.63-.616h9.117c.015 0 .063 0 .093-.055a.092.092 0 0 0-.006-.105l-1.972-2.887a1.033 1.033 0 0 0-.855-.447H15.56a.346.346 0 0 0-.243.099l-1.043 1.017a1.615 1.615 0 0 1-1.135.459H2.282a1.01 1.01 0 0 0-1.021.996v15.784Z"/>
<path fill="#101828" d="M17.601 6.798h3.989c.805 0 1.461.64 1.461 1.426v13.165c0 .34-.282.615-.63.615h-5.65a.623.623 0 0 1-.63-.615V8.224c0-.787.654-1.426 1.46-1.426Zm-.2 13.975h4.389V13.54H17.4v7.233Zm0-8.463h4.389V8.223a.198.198 0 0 0-.2-.196H17.6c-.11 0-.2.088-.2.196v4.085h.001ZM4.844 6.798h7.712c.892 0 1.617.708 1.617 1.577v3.588c0 .87-.726 1.577-1.617 1.577H4.843c-.891 0-1.616-.707-1.616-1.577V8.375c0-.87.725-1.577 1.617-1.577Zm-.356 5.165c0 .19.16.347.356.347h7.712a.352.352 0 0 0 .356-.347V8.375c0-.191-.16-.347-.356-.347H4.843a.352.352 0 0 0-.355.347v3.588Z"/>
</symbol>

<symbol id="full" xmlns="http://www.w3.org/2000/svg" width="40" height="28" fill="none">
<path fill="#101828" d="M2.282 2.075H13.14a.346.346 0 0 0 .243-.099L14.426.96A1.615 1.615 0 0 1 15.561.5h16.465a2.3 2.3 0 0 1 1.904.994l1.973 2.888c.28.41.306.934.068 1.368a1.37 1.37 0 0 1-1.205.704H26.28v.837h4.346a2.87 2.87 0 0 1 2.64 1.702l2.545 5.818 2.23.87c1.19.465 1.959 1.573 1.959 2.824v5.388c0 .804-.67 1.458-1.494 1.458h-2.594c-.301 1.783-1.893 3.149-3.806 3.149S28.6 27.134 28.3 25.35H14.122c-.302 1.784-1.894 3.15-3.807 3.15-1.912 0-3.504-1.366-3.806-3.15h-5.18C.595 25.35 0 24.77 0 24.056V4.3c0-1.228 1.023-2.226 2.282-2.226ZM32.106 27.27c1.432 0 2.598-1.137 2.598-2.535 0-1.397-1.166-2.534-2.598-2.534-1.433 0-2.598 1.137-2.598 2.534 0 1.398 1.165 2.535 2.598 2.535Zm-5.826-3.15h2.019l.017-.091.012-.062c.01-.048.022-.096.034-.144l.008-.03c.015-.057.031-.113.05-.17.004-.016.01-.032.016-.049a4.18 4.18 0 0 1 .065-.18l.041-.1.03-.066.043-.095.033-.066.048-.09.035-.065.052-.088.038-.062.058-.088.039-.057c.022-.031.044-.062.068-.092l.035-.048a4.466 4.466 0 0 1 .225-.266l.037-.038.084-.087.05-.046a3.456 3.456 0 0 1 .211-.188l.058-.045a4.16 4.16 0 0 1 .141-.107l.085-.059.06-.04c.03-.02.06-.038.091-.057l.06-.036c.033-.02.067-.038.101-.057l.052-.03a4.71 4.71 0 0 1 .148-.073l.011-.005c.054-.026.108-.05.163-.072.017-.008.036-.014.053-.021l.114-.044.065-.023a4.02 4.02 0 0 1 .458-.126l.076-.016a3.637 3.637 0 0 1 .294-.044l.072-.008.125-.01c.02 0 .041-.003.062-.003a3.497 3.497 0 0 1 .378 0c.02 0 .04.002.062.004.041.002.083.005.125.01.024.001.048.005.072.007a3.454 3.454 0 0 1 .37.06 3.79 3.79 0 0 1 .458.126l.065.023.114.044.053.02c.055.023.11.047.163.073l.011.005c.05.024.099.048.147.074l.052.029c.035.018.069.037.102.057l.06.036.09.057.061.04.085.06a2.876 2.876 0 0 1 .141.106l.058.045a5.09 5.09 0 0 1 .211.188l.05.046.084.087.037.038c.04.042.078.086.115.13l.015.018c.032.039.064.077.095.118l.035.048.068.092.039.057.058.088.038.062.051.088.036.065.048.09.033.066c.015.032.03.063.043.095l.03.065a2.467 2.467 0 0 1 .065.164l.041.117.017.05c.017.056.034.112.05.17l.007.03c.012.047.023.095.033.143l.013.062.017.091h2.593a.23.23 0 0 0 .233-.227v-2.578h-.984v-1.23h.984v-1.58c0-.745-.458-1.405-1.167-1.682l-2.36-.92H26.28v8.217Zm0-9.448h8.1l-2.273-5.197a1.61 1.61 0 0 0-1.481-.954H26.28v6.151ZM10.315 27.27c1.433 0 2.598-1.137 2.598-2.535 0-1.397-1.165-2.534-2.598-2.534-.045 0-.089.001-.133.004-1.194.059-2.177.908-2.412 2.02a2.606 2.606 0 0 0-.049.38 2.24 2.24 0 0 0-.003.13c0 1.398 1.165 2.535 2.597 2.535Zm-9.054-7.185h.984v1.23H1.26v2.74c0 .036.03.065.067.065h5.18l.018-.09c.004-.021.007-.043.012-.064.01-.047.02-.094.033-.14l.008-.033c.015-.057.032-.113.05-.17l.017-.05.04-.116.025-.063a5.547 5.547 0 0 1 .07-.167l.043-.093c.01-.023.022-.045.034-.067l.046-.09.037-.065a4.985 4.985 0 0 1 .186-.295l.067-.091.037-.05c.03-.039.06-.077.093-.115l.016-.02c.038-.044.076-.088.115-.13l.038-.04.084-.085.05-.047.077-.073.055-.047.079-.066.058-.047a4.97 4.97 0 0 1 .14-.106c.028-.02.056-.04.085-.058l.06-.041.09-.057.06-.036.102-.057.053-.03c.048-.025.097-.049.146-.072.004-.002.008-.005.013-.006.053-.026.108-.05.162-.072l.054-.021.113-.044.066-.023a3.45 3.45 0 0 1 .105-.034 3.946 3.946 0 0 1 .353-.091l.075-.017a3.62 3.62 0 0 1 .294-.044l.072-.008.126-.01c.02 0 .04-.003.061-.003a3.5 3.5 0 0 1 .378 0c.021 0 .041.002.062.004.042.002.084.005.125.01.024.001.048.005.072.007a3.526 3.526 0 0 1 .188.026l.106.018.076.016a3.79 3.79 0 0 1 .281.07l.072.022c.035.01.07.022.104.034l.066.023.114.044.053.02a3.966 3.966 0 0 1 .321.152l.053.029.102.057.06.036.09.057.061.04.084.06a2.428 2.428 0 0 1 .14.105l.059.047c.027.021.053.044.079.066l.054.047.079.074.049.046.084.086.037.04a4.111 4.111 0 0 1 .225.265l.036.048c.023.03.046.061.067.092l.039.058a3.468 3.468 0 0 1 .148.237l.036.065.047.09.033.066.044.095.029.065c.015.034.028.068.041.102l.024.062c.015.039.028.078.041.118l.017.048c.018.056.034.114.05.17l.006.028c.013.048.024.097.035.146l.011.06.019.093h10.896V5.84c0-.34.282-.616.63-.616h9.117c.015 0 .063 0 .093-.055a.092.092 0 0 0-.006-.105l-1.972-2.887a1.033 1.033 0 0 0-.855-.447H15.56a.346.346 0 0 0-.243.099l-1.043 1.017a1.615 1.615 0 0 1-1.135.459H2.282a1.01 1.01 0 0 0-1.021.996v15.784Z"/>
<path fill="#101828" d="M17.601 6.798h3.989c.805 0 1.461.64 1.461 1.426v13.165c0 .34-.282.615-.63.615h-5.65a.623.623 0 0 1-.63-.615V8.224c0-.787.654-1.426 1.46-1.426Zm-.2 13.975h4.389V13.54H17.4v7.233Zm0-8.463h4.389V8.223a.198.198 0 0 0-.2-.196H17.6c-.11 0-.2.088-.2.196l.001 4.085Z"/>
</symbol>


<symbol id="Van" xmlns="http://www.w3.org/2000/svg" width="40" height="28" fill="none">
<path fill="#101828" d="M2.282 1.575H13.14a.346.346 0 0 0 .243-.099L14.426.46A1.615 1.615 0 0 1 15.561 0h16.465a2.3 2.3 0 0 1 1.904.994l1.973 2.888c.28.41.306.934.068 1.368a1.37 1.37 0 0 1-1.205.704H26.28v.837h4.346a2.87 2.87 0 0 1 2.64 1.702l2.545 5.818 2.23.87c1.19.465 1.959 1.573 1.959 2.824v5.388c0 .804-.67 1.458-1.494 1.458h-2.594C35.611 26.634 34.02 28 32.106 28S28.6 26.634 28.3 24.85H14.122C13.82 26.635 12.228 28 10.315 28c-1.912 0-3.504-1.366-3.806-3.15h-5.18C.595 24.85 0 24.27 0 23.556V3.8c0-1.228 1.023-2.226 2.282-2.226ZM32.106 26.77c1.432 0 2.598-1.137 2.598-2.535 0-1.397-1.166-2.534-2.598-2.534-1.433 0-2.598 1.137-2.598 2.534 0 1.398 1.165 2.535 2.598 2.535Zm-5.826-3.15h2.019l.017-.091.012-.062c.01-.048.022-.096.034-.144l.008-.03c.015-.057.031-.113.05-.17.004-.016.01-.032.016-.049a4.18 4.18 0 0 1 .065-.18l.041-.1.03-.066.043-.095.033-.066.048-.09.035-.065.052-.088.038-.062.058-.088.039-.057c.022-.031.044-.062.068-.092l.035-.048a4.466 4.466 0 0 1 .225-.266l.037-.038.084-.087.05-.046a3.456 3.456 0 0 1 .211-.188l.058-.045a4.16 4.16 0 0 1 .141-.107l.085-.059.06-.04c.03-.02.06-.038.091-.057l.06-.036c.033-.02.067-.038.101-.057l.052-.03a4.71 4.71 0 0 1 .148-.073l.011-.005c.054-.026.108-.05.163-.072.017-.008.036-.014.053-.021l.114-.044.065-.023a4.02 4.02 0 0 1 .458-.126l.076-.016a3.637 3.637 0 0 1 .294-.044l.072-.008.125-.01c.02 0 .041-.003.062-.003a3.497 3.497 0 0 1 .378 0c.02 0 .04.002.062.004.041.002.083.005.125.01.024.001.048.005.072.007a3.454 3.454 0 0 1 .37.06 3.79 3.79 0 0 1 .458.126l.065.023.114.044.053.02c.055.023.11.047.163.073l.011.005c.05.024.099.048.147.074l.052.029c.035.018.069.037.102.057l.06.036.09.057.061.04.085.06a2.876 2.876 0 0 1 .141.106l.058.045a5.09 5.09 0 0 1 .211.188l.05.046.084.087.037.038c.04.042.078.086.115.13l.015.018c.032.039.064.077.095.118l.035.048.068.092.039.057.058.088.038.062.051.088.036.065.048.09.033.066c.015.032.03.063.043.095l.03.065a2.467 2.467 0 0 1 .065.164l.041.117.017.05c.017.056.034.112.05.17l.007.03c.012.047.023.095.033.143l.013.062.017.091h2.593a.23.23 0 0 0 .233-.227v-2.578h-.984v-1.23h.984v-1.58c0-.745-.458-1.405-1.167-1.682l-2.36-.92H26.28v8.217Zm0-9.448h8.1l-2.273-5.197a1.61 1.61 0 0 0-1.481-.954H26.28v6.151ZM10.315 26.77c1.433 0 2.598-1.137 2.598-2.535 0-1.397-1.165-2.534-2.598-2.534-.045 0-.089.001-.133.004-1.194.059-2.177.908-2.412 2.02a2.606 2.606 0 0 0-.049.38 2.24 2.24 0 0 0-.003.13c0 1.398 1.165 2.535 2.597 2.535Zm-9.054-7.185h.984v1.23H1.26v2.74c0 .036.03.065.067.065h5.18l.018-.09c.004-.021.007-.043.012-.064.01-.047.02-.094.033-.14l.008-.033c.015-.057.032-.113.05-.17l.017-.05.04-.116.025-.063a5.547 5.547 0 0 1 .07-.167l.043-.093c.01-.023.022-.045.034-.067l.046-.09.037-.065a4.985 4.985 0 0 1 .186-.295l.067-.091.037-.05c.03-.039.06-.077.093-.115l.016-.02c.038-.044.076-.088.115-.13l.038-.04.084-.085.05-.047.077-.073.055-.047.079-.066.058-.047a4.97 4.97 0 0 1 .14-.106c.028-.02.056-.04.085-.058l.06-.041.09-.057.06-.036.102-.057.053-.03c.048-.025.097-.049.146-.072.004-.002.008-.005.013-.006.053-.026.108-.05.162-.072l.054-.021.113-.044.066-.023a3.45 3.45 0 0 1 .105-.034 3.946 3.946 0 0 1 .353-.091l.075-.017a3.62 3.62 0 0 1 .294-.044l.072-.008.126-.01c.02 0 .04-.003.061-.003a3.5 3.5 0 0 1 .378 0c.021 0 .041.002.062.004.042.002.084.005.125.01.024.001.048.005.072.007a3.526 3.526 0 0 1 .188.026l.106.018.076.016a3.79 3.79 0 0 1 .281.07l.072.022c.035.01.07.022.104.034l.066.023.114.044.053.02a3.966 3.966 0 0 1 .321.152l.053.029.102.057.06.036.09.057.061.04.084.06a2.428 2.428 0 0 1 .14.105l.059.047c.027.021.053.044.079.066l.054.047.079.074.049.046.084.086.037.04a4.111 4.111 0 0 1 .225.265l.036.048c.023.03.046.061.067.092l.039.058a3.468 3.468 0 0 1 .148.237l.036.065.047.09.033.066.044.095.029.065c.015.034.028.068.041.102l.024.062c.015.039.028.078.041.118l.017.048c.018.056.034.114.05.17l.006.028c.013.048.024.097.035.146l.011.06.019.093h10.896V5.34c0-.34.282-.616.63-.616h9.117c.015 0 .063 0 .093-.055a.092.092 0 0 0-.006-.105l-1.972-2.887a1.033 1.033 0 0 0-.855-.447H15.56a.346.346 0 0 0-.243.099l-1.043 1.017a1.615 1.615 0 0 1-1.135.459H2.282a1.01 1.01 0 0 0-1.021.996v15.784Z"/>
<path fill="#101828" d="M4.844 6.298h7.712c.892 0 1.617.708 1.617 1.577v3.588c0 .87-.726 1.577-1.617 1.577H4.843c-.891 0-1.616-.707-1.616-1.577V7.875c0-.87.725-1.577 1.617-1.577Zm-.356 5.165c0 .19.16.347.356.347h7.712a.352.352 0 0 0 .356-.347V7.875c0-.191-.16-.347-.356-.347H4.843a.352.352 0 0 0-.355.347v3.588Z"/>
</symbol>

<symbol id="WC" xmlns="http://www.w3.org/2000/svg" width="32" height="33" fill="none">
<path stroke="#101828" stroke-linecap="round" stroke-linejoin="round" stroke-width="2" d="m5.333 5.833 3.334 3.334m9.333 0A6.6 6.6 0 0 0 8.667 18.5M20 7.167 6.667 20.5m12 2.667v.013m-5.334-1.347v.014m4-4.014v.014m4-4.014v.014m-6.666 13.32v.013m8-8.013v.013m4-4.013v.013"/>
</symbol>
<symbol xmlns="http://www.w3.org/2000/svg" width="32" height="33" fill="none">
<path id="TV" stroke="#101828" stroke-linecap="round" stroke-linejoin="round" stroke-width="1.8" d="M24 26.5H8c-2.216 0-4-1.784-4-4v-10c0-2.216 1.784-4 4-4h16c2.216 0 4 1.784 4 4v10c0 2.216-1.784 4-4 4ZM12 30.5h8M16 8.5l6-6M16 8.5l-6-6"/>
</symbol>

<symbol id="automatic" xmlns="http://www.w3.org/2000/svg" width="33" height="33" fill="none">
<path stroke="#101828" stroke-linecap="round" stroke-linejoin="round" stroke-width="1.8" d="M23.167 15.167h2a2 2 0 0 0 0-4h-2v6.666m0 5.334V28.5H24.5a2.667 2.667 0 0 0 0-5.333h-1.333ZM4.5 7.167a2.667 2.667 0 1 0 5.333 0 2.667 2.667 0 0 0-5.333 0Z"/>
<path stroke="#101828" stroke-linecap="round" stroke-linejoin="round" stroke-width="1.8" d="M7.167 9.833v4A1.333 1.333 0 0 0 8.5 15.167h4m0 0V24.5a1.333 1.333 0 0 0 1.333 1.333h4M12.5 15.167h5.333"/>
</symbol>

<symbol id="map-pin" width="18" height="20" viewBox="0 0 29 32" x="0" y="0">
<path fill="none" stroke-linejoin="round" stroke-linecap="round" stroke-miterlimit="4" stroke-width="2.4" stroke="#000" d="M26.4 13.333c0 9.333-12 17.333-12 17.333s-12-8-12-17.333c0-3.183 1.264-6.235 3.515-8.485s5.303-3.515 8.485-3.515c3.183 0 6.235 1.264 8.485 3.515s3.515 5.303 3.515 8.485z"></path>
<path fill="none" stroke-linejoin="round" stroke-linecap="round" stroke-miterlimit="4" stroke-width="2.4" stroke="#000" d="M14.4 17.333c2.209 0 4-1.791 4-4s-1.791-4-4-4c-2.209 0-4 1.791-4 4s1.791 4 4 4z"></path>
</symbol>

<symbol>
<path id="ac" d="M15.554 5.3c-1.351 0-2.66.48-3.705 1.359a6.025 6.025 0 0 0-2.027 3.46l-.104.539a.946.946 0 0 0 .119.71.912.912 0 0 0 .58.407.88.88 0 0 0 .69-.146.913.913 0 0 0 .375-.61l.106-.537a4.162 4.162 0 0 1 1.563-2.513 3.973 3.973 0 0 1 5.399.55 4.21 4.21 0 0 1 1.05 2.78 4.21 4.21 0 0 1-1.186 2.937 4 4 0 0 1-2.864 1.218H2.5a.889.889 0 0 0-.636.27.935.935 0 0 0-.264.653c0 .245.095.48.264.653.168.173.397.27.636.27h13.05a5.785 5.785 0 0 0 4.044-1.808 6.083 6.083 0 0 0 1.665-4.19c0-1.566-.596-3.07-1.662-4.192a5.784 5.784 0 0 0-4.043-1.81ZM25.9 13.608a4.444 4.444 0 0 0-3.182 1.351 4.676 4.676 0 0 0-1.318 3.264c0 .245.095.48.264.653.168.173.397.27.636.27a.889.889 0 0 0 .636-.27.935.935 0 0 0 .264-.653c0-.548.158-1.083.455-1.538.297-.456.718-.81 1.212-1.02a2.637 2.637 0 0 1 1.56-.158 2.68 2.68 0 0 1 1.382.758c.378.387.635.88.74 1.418.103.537.05 1.094-.154 1.6-.205.506-.55.938-.995 1.243a2.652 2.652 0 0 1-1.5.466H2.5a.889.889 0 0 0-.636.27.935.935 0 0 0-.264.653c0 .245.095.48.264.653.168.173.397.27.636.27h17.55a2.222 2.222 0 0 1 1.59.68c.42.433.657 1.02.656 1.633a2.338 2.338 0 0 1-.663 1.63 2.221 2.221 0 0 1-1.592.673 2.241 2.241 0 0 1-1.469-.55 2.348 2.348 0 0 1-.775-1.392l-.01-.056a.94.94 0 0 0-.357-.619.892.892 0 0 0-.682-.167.887.887 0 0 0-.592.385.936.936 0 0 0-.143.704l.009.055c.16.975.651 1.86 1.387 2.498a4.015 4.015 0 0 0 2.632.988 4.006 4.006 0 0 0 2.868-1.216 4.216 4.216 0 0 0 1.191-2.938 4.21 4.21 0 0 0-.682-2.308H25.9a4.444 4.444 0 0 0 3.182-1.351 4.676 4.676 0 0 0 1.318-3.264 4.676 4.676 0 0 0-1.318-3.263 4.444 4.444 0 0 0-3.182-1.352Z"/></mask><path fill="#101828" d="M15.554 5.3c-1.351 0-2.66.48-3.705 1.359a6.025 6.025 0 0 0-2.027 3.46l-.104.539a.946.946 0 0 0 .119.71.912.912 0 0 0 .58.407.88.88 0 0 0 .69-.146.913.913 0 0 0 .375-.61l.106-.537a4.162 4.162 0 0 1 1.563-2.513 3.973 3.973 0 0 1 5.399.55 4.21 4.21 0 0 1 1.05 2.78 4.21 4.21 0 0 1-1.186 2.937 4 4 0 0 1-2.864 1.218H2.5a.889.889 0 0 0-.636.27.935.935 0 0 0-.264.653c0 .245.095.48.264.653.168.173.397.27.636.27h13.05a5.785 5.785 0 0 0 4.044-1.808 6.083 6.083 0 0 0 1.665-4.19c0-1.566-.596-3.07-1.662-4.192a5.784 5.784 0 0 0-4.043-1.81ZM25.9 13.608a4.444 4.444 0 0 0-3.182 1.351 4.676 4.676 0 0 0-1.318 3.264c0 .245.095.48.264.653.168.173.397.27.636.27a.889.889 0 0 0 .636-.27.935.935 0 0 0 .264-.653c0-.548.158-1.083.455-1.538.297-.456.718-.81 1.212-1.02a2.637 2.637 0 0 1 1.56-.158 2.68 2.68 0 0 1 1.382.758c.378.387.635.88.74 1.418.103.537.05 1.094-.154 1.6-.205.506-.55.938-.995 1.243a2.652 2.652 0 0 1-1.5.466H2.5a.889.889 0 0 0-.636.27.935.935 0 0 0-.264.653c0 .245.095.48.264.653.168.173.397.27.636.27h17.55a2.222 2.222 0 0 1 1.59.68c.42.433.657 1.02.656 1.633a2.338 2.338 0 0 1-.663 1.63 2.221 2.221 0 0 1-1.592.673 2.241 2.241 0 0 1-1.469-.55 2.348 2.348 0 0 1-.775-1.392l-.01-.056a.94.94 0 0 0-.357-.619.892.892 0 0 0-.682-.167.887.887 0 0 0-.592.385.936.936 0 0 0-.143.704l.009.055c.16.975.651 1.86 1.387 2.498a4.015 4.015 0 0 0 2.632.988 4.006 4.006 0 0 0 2.868-1.216 4.216 4.216 0 0 0 1.191-2.938 4.21 4.21 0 0 0-.682-2.308H25.9a4.444 4.444 0 0 0 3.182-1.351 4.676 4.676 0 0 0 1.318-3.264 4.676 4.676 0 0 0-1.318-3.263 4.444 4.444 0 0 0-3.182-1.352Z"/><path fill="#101828" d="m15.554 5.3.128-4.998L15.617.3h-.064v5Zm-5.732 4.818L4.915 9.16l-.001.008 4.909.95Zm-.104.54 4.873 1.121.02-.085.016-.086-4.909-.95Zm1.764.361-4.905-.97-.018.09-.014.089 4.937.791Zm.106-.537-4.904-.971v.002l4.904.97Zm8.012.816h5v-.012l-5 .012Zm-4.05 4.156v5h.002l-.002-5Zm-13.95.923h-5 5Zm13.95.923v5h.063l.063-.002-.126-4.998Zm7.65.923h5-5ZM1.6 21.915h-5 5Zm18.45.924.01-5h-.01v5Zm-.009 4.615.01-5h-.014l.004 5Zm-2.244-1.942-4.936.802.002.008v.008l4.934-.818Zm-.01-.056-4.956.655.01.074.011.073 4.936-.802Zm-1.774.303 4.935-.802-.012-.072-.014-.071-4.91.945Zm.009.055-4.936.802.002.009 4.934-.81Zm4.02 3.486.001-5h-.003l.001 5Zm4.058-4.154 5 .009v-.009h-5Zm-.682-2.308v-5h-9.235l5.048 7.733 4.187-2.733ZM15.553.3c-2.542 0-4.987.905-6.922 2.532l6.435 7.654a.758.758 0 0 1 .489-.186l-.002-10ZM8.63 2.832A11.025 11.025 0 0 0 4.915 9.16l9.815 1.917c.05-.255.18-.459.336-.59L8.631 2.831ZM4.914 9.168l-.105.539 9.818 1.901.104-.539-9.817-1.901Zm-.069.368a5.946 5.946 0 0 0-.07 2.312l9.864-1.646a4.053 4.053 0 0 1-.048 1.577L4.845 9.536Zm-.07 2.312c.128.768.406 1.507.824 2.173l8.476-5.306c.286.458.476.964.564 1.487l-9.864 1.646Zm.824 2.173c.417.667.967 1.25 1.621 1.708l5.733-8.194c.456.319.835.722 1.122 1.18l-8.476 5.306ZM7.22 15.73c.655.458 1.4.781 2.193.944l2.01-9.796c.554.114 1.075.34 1.53.658L7.22 15.73Zm2.193.944c.792.162 1.61.16 2.4-.008L9.74 6.882a4.122 4.122 0 0 1 1.683-.005l-2.01 9.796Zm2.4-.008A5.89 5.89 0 0 0 14 15.707L8.213 7.55a4.112 4.112 0 0 1 1.526-.669l2.075 9.783ZM14 15.707a5.915 5.915 0 0 0 1.61-1.718L7.1 8.737c.284-.46.66-.865 1.114-1.186L14 15.706Zm1.61-1.718c.413-.669.687-1.41.81-2.178l-9.874-1.583c.084-.524.27-1.03.554-1.49l8.51 5.251Zm.778-2 .106-.537-9.81-1.94-.106.538 9.81 1.939Zm.106-.535a.838.838 0 0 1-.324.502l-6.035-7.974a9.163 9.163 0 0 0-3.45 5.529l9.809 1.943Zm-.324.502c-.192.145-.45.225-.722.197l1.013-9.949a8.973 8.973 0 0 0-6.326 1.778l6.035 7.974Zm-.722.197a.99.99 0 0 1-.641-.32l7.488-6.628a9.011 9.011 0 0 0-5.834-3l-1.013 9.948Zm-.641-.32a.79.79 0 0 1-.206-.523l10-.024a9.21 9.21 0 0 0-2.306-6.081l-7.488 6.628Zm-.206-.535a.79.79 0 0 1 .233-.552l7.162 6.98a9.21 9.21 0 0 0 2.605-6.428h-10Zm.233-.552a1 1 0 0 1 .715-.292l.004 10a9.001 9.001 0 0 0 6.443-2.728l-7.162-6.98Zm.717-.292H2.5v10h13.05v-10Zm-13.05 0c-1.606 0-3.12.655-4.216 1.78l7.16 6.98a4.111 4.111 0 0 1-2.944 1.24v-10Zm-4.216 1.78A5.935 5.935 0 0 0-3.4 16.377h10a4.065 4.065 0 0 1-1.156 2.838l-7.16-6.981ZM-3.4 16.377c0 1.53.592 3.023 1.684 4.143l7.16-6.98A4.065 4.065 0 0 1 6.6 16.376h-10Zm1.684 4.143A5.889 5.889 0 0 0 2.5 22.3v-10c1.129 0 2.185.461 2.944 1.24l-7.16 6.98ZM2.5 22.3h13.05v-10H2.5v10Zm13.176-.002a10.783 10.783 0 0 0 7.54-3.359l-7.244-6.894a.786.786 0 0 1-.547.257l.25 9.996Zm7.54-3.359a11.083 11.083 0 0 0 3.043-7.636l-10-.003c0 .301-.116.566-.287.745l7.244 6.894Zm3.043-7.636c0-2.83-1.076-5.574-3.038-7.637l-7.248 6.889c.17.179.286.444.286.745l10 .003ZM23.22 3.666A10.784 10.784 0 0 0 15.682.302l-.257 9.996a.785.785 0 0 1 .548.257l7.248-6.89Zm2.68 4.942a9.444 9.444 0 0 0-6.763 2.861l7.16 6.981a.558.558 0 0 1-.398.158v-10Zm-6.763 2.861a9.676 9.676 0 0 0-2.738 6.754h10a.326.326 0 0 1-.102.227l-7.16-6.981ZM16.4 18.223c0 1.53.592 3.023 1.684 4.143l7.16-6.98a4.065 4.065 0 0 1 1.156 2.837h-10Zm1.684 4.143a5.889 5.889 0 0 0 4.216 1.78v-10c1.129 0 2.185.461 2.944 1.24l-7.16 6.98Zm4.216 1.78c1.606 0 3.12-.655 4.216-1.78l-7.16-6.98a4.111 4.111 0 0 1 2.944-1.24v10Zm4.216-1.78a5.935 5.935 0 0 0 1.684-4.143h-10c0-1.04.402-2.064 1.157-2.838l7.16 6.981Zm1.684-4.143c0 .414-.119.828-.355 1.19l-8.38-5.458a7.82 7.82 0 0 0-1.265 4.268h10Zm-.355 1.19a2.285 2.285 0 0 1-1.023.854l-3.91-9.204a7.717 7.717 0 0 0-3.446 2.892l8.378 5.459Zm-1.023.854a2.363 2.363 0 0 1-1.395.14l2-9.799a7.637 7.637 0 0 0-4.515.455l3.91 9.204Zm-1.395.14a2.32 2.32 0 0 1-1.198-.652l7.16-6.98a7.68 7.68 0 0 0-3.963-2.167l-1.999 9.798Zm-1.198-.652a2.207 2.207 0 0 1-.59-1.12l9.818-1.904a7.793 7.793 0 0 0-2.068-3.957l-7.16 6.981Zm-.59-1.12c-.078-.408-.039-.833.12-1.225l9.272 3.745a7.835 7.835 0 0 0 .426-4.424l-9.817 1.904Zm.12-1.225c.158-.393.435-.749.815-1.009l5.653 8.249a7.756 7.756 0 0 0 2.804-3.495l-9.273-3.745Zm.815-1.009a2.348 2.348 0 0 1 1.326-.409v10a7.652 7.652 0 0 0 4.327-1.342l-5.653-8.249Zm1.326-.409H2.5v10h23.4v-10Zm-23.4 0c-1.606 0-3.12.656-4.216 1.78l7.16 6.981a4.111 4.111 0 0 1-2.944 1.24v-10Zm-4.216 1.78A5.935 5.935 0 0 0-3.4 21.915h10a4.065 4.065 0 0 1-1.156 2.838l-7.16-6.98ZM-3.4 21.915c0 1.531.592 3.024 1.684 4.144l7.16-6.981A4.065 4.065 0 0 1 6.6 21.915h-10Zm1.684 4.144a5.889 5.889 0 0 0 4.216 1.78v-10c1.129 0 2.185.46 2.944 1.239l-7.16 6.98Zm4.216 1.78h17.55v-10H2.5v10Zm17.54 0A2.778 2.778 0 0 1 18.053 27l7.174-6.967a7.222 7.222 0 0 0-5.167-2.195l-.02 10ZM18.053 27a2.662 2.662 0 0 1-.757-1.86l10 .02a7.338 7.338 0 0 0-2.07-5.127l-7.173 6.967Zm-.757-1.86a2.662 2.662 0 0 1 .764-1.857l7.146 6.995a7.338 7.338 0 0 0 2.09-5.119l-10-.019Zm.764-1.857a2.779 2.779 0 0 1 1.991-.83l-.02 10a7.221 7.221 0 0 0 5.175-2.175l-7.146-6.995Zm1.977-.83c.68 0 1.319.247 1.807.669l-6.543 7.562a7.241 7.241 0 0 0 4.744 1.769l-.008-10Zm1.807.669c.485.42.787.98.885 1.57l-9.865 1.637a7.348 7.348 0 0 0 2.437 4.355l6.543-7.562Zm.888 1.587-.01-.056-9.87 1.604.01.056 9.87-1.604Zm.012.091A5.94 5.94 0 0 0 22 22.61l-8.658 5.002a4.06 4.06 0 0 1-.51-1.5l9.913-1.31ZM22 22.61a5.916 5.916 0 0 0-1.552-1.759l-6.034 7.975a4.085 4.085 0 0 1-1.072-1.214l8.658-5.003Zm-1.552-1.759a5.89 5.89 0 0 0-2.147-1.023l-2.389 9.71a4.11 4.11 0 0 1-1.498-.712l6.034-7.975ZM18.3 19.827a5.878 5.878 0 0 0-2.393-.086l1.682 9.858a4.123 4.123 0 0 1-1.678-.061l2.389-9.71Zm-2.393-.086a5.885 5.885 0 0 0-2.219.868l5.452 8.383c-.466.303-.993.511-1.551.607l-1.682-9.858Zm-2.219.868a5.913 5.913 0 0 0-1.677 1.649l8.289 5.594a4.09 4.09 0 0 1-1.16 1.14l-5.452-8.383Zm-1.677 1.649a5.937 5.937 0 0 0-.896 2.14l9.8 1.989a4.065 4.065 0 0 1-.615 1.465l-8.289-5.594Zm-.896 2.14a5.945 5.945 0 0 0-.012 2.306l9.82-1.89c.1.52.097 1.054-.008 1.573l-9.8-1.99Zm-.038 2.163.01.055 9.87-1.604-.009-.055-9.87 1.604Zm.01.064a9.205 9.205 0 0 0 3.046 5.465l6.552-7.555c.16.138.244.31.27.47l-9.867 1.62Zm3.046 5.465a9.014 9.014 0 0 0 5.91 2.21l-.003-10c.255 0 .482.093.645.235l-6.552 7.555Zm5.906 2.21a9.006 9.006 0 0 0 6.446-2.721l-7.152-6.989c.166-.17.42-.29.71-.29l-.004 10Zm6.446-2.721a9.215 9.215 0 0 0 2.615-6.424l-10-.018c0-.181.07-.38.232-.547l7.153 6.989Zm2.615-6.433a9.21 9.21 0 0 0-1.495-5.04L19.23 25.57a.79.79 0 0 1-.13-.425h10Zm-5.682 2.692H25.9v-10h-2.482v10Zm2.482 0a9.444 9.444 0 0 0 6.762-2.86l-7.16-6.982a.558.558 0 0 1 .398-.157v10Zm6.762-2.86a9.676 9.676 0 0 0 2.738-6.755h-10c0-.062.023-.146.102-.227l7.16 6.981Zm2.738-6.755c0-2.51-.97-4.942-2.738-6.754l-7.16 6.981a.326.326 0 0 1-.102-.227h10Zm-2.738-6.754A9.444 9.444 0 0 0 25.9 8.608v10a.558.558 0 0 1-.398-.158l7.16-6.981Z" mask="url(#a)"/></svg>
</symbol>
    <!-- Додайте інші символи тут -->
</svg>